<?xml version="1.0" encoding="utf-8"?>
<!-- Generator: Adobe Illustrator 22.1.0, SVG Export Plug-In . SVG Version: 6.00 Build 0)  -->
<svg version="1.1" id="Layer_1" xmlns="http://www.w3.org/2000/svg" xmlns:xlink="http://www.w3.org/1999/xlink" x="0px" y="0px"
	 viewBox="0 0 212 288.2" style="enable-background:new 0 0 212 288.2;" xml:space="preserve">
<g>
	<path d="M85,138c-2-3-14-16-1-8c4,3,10,14,16,14c4-1-5-33-23-35c-23-2-42-10-54-32c-6-11,7,6,8,7c23,26,56,10,69,30c0-1-8-41-17-50
		C70,51,50,51,48,49c-7-5,29,3,39,13c16,15,15,41,18,29c5-23,18-42,9-57c-9-18,5-2,7,6c4,21-18,68-9,86c6-5,13-20,35-21
		c15,0,32,4,38-10c1-5,0-7,0-11c1-12,21,29-33,29c-10,0-27,5-30,15c-7,17-1,25-1,34c-2,28,19-21,14-2c-4,12-13,24-13,37
		c2,31,3,44,34,57c8,4,16,15,6,10c-49-28-26,7-29,9c-2,2-8-9-9-10s-9-33-12-23c-3,8-5,9-9,16c-7,10-3,15-2,26c0,8-6-4-7-7s-2-13-7-9
		c-9,4-20,24-19,18c1-20,27-29,30-43c-9,3-34,17-42,25c-6,6-12,20-9,7c3-12,11-18-2-18c-8,1-10,2-17,5c-8,3-5-1,6-6c14-6,24,3,47-15
		c19-16,22-50,22-74C103,150,92,149,85,138z"/>
	<path d="M61,141c5-7,15-8,21-3C77,145,67,147,61,141z"/>
	<path d="M70,156c1-9,9-14,17-12C86,152,78,158,70,156z"/>
	<path d="M54,122c8-4,17,1,19,9C65,135,56,130,54,122z"/>
	<path d="M67,110c8-1,16,6,15,14C74,125,66,118,67,110z"/>
	<path d="M0,83c6-7,16-6,21,1C15,90,5,89,0,83z"/>
	<path d="M3,59c9-2,17,5,17,13C12,74,4,67,3,59z"/>
	<path d="M29,54c6,6,6,16,0,21C22,70,22,60,29,54z"/>
	<path d="M8,98c5-8,15-9,22-4C25,101,15,103,8,98z"/>
	<path d="M43,63c4,8,1,17-6,21C32,76,35,67,43,63z"/>
	<path d="M121,3c-7,4-10,14-5,21C124,20,126,10,121,3z"/>
	<path d="M97,0c-4,8,0,17,8,20C109,12,105,3,97,0z"/>
	<path d="M86,23c3,8,13,11,20,6C103,21,93,18,86,23z"/>
	<path d="M133,16c-8,2-12,11-9,19C132,33,137,24,133,16z"/>
	<path d="M91,39c5,7,16,6,21,0C106,33,96,33,91,39z"/>
	<path d="M48,21c-5,8-2,17,6,21C59,34,55,25,48,21z"/>
	<path d="M27,33c1,9,9,15,17,13C43,37,35,31,27,33z"/>
	<path d="M36,60c7,5,17,2,21-5C49,50,40,52,36,60z"/>
	<path d="M64,25c-5,7-4,17,3,22C72,40,71,30,64,25z"/>
	<path d="M52,70c8,3,17-3,18-11C62,56,53,62,52,70z"/>
	<path d="M206,65c-8,1-15,8-14,17C201,82,207,74,206,65z"/>
	<path d="M186,52c-7,5-7,15-1,21C192,68,192,58,186,52z"/>
	<path d="M166,67c0,9,7,16,15,15C182,73,174,66,166,67z"/>
	<path d="M212,82c-9-2-17,5-17,13C203,97,211,90,212,82z"/>
	<path d="M163,84c2,8,12,13,20,9C180,85,171,81,163,84z"/>
	<path d="M141,35c0,9-7,15-15,15C125,41,133,34,141,35z"/>
	<path d="M145,56c-4,7-14,10-21,5C128,53,138,51,145,56z"/>
	<path d="M212,101c-6-6-16-5-21,2C197,109,207,108,212,101z"/>
	<path d="M203,119c-2-8-11-12-19-9C186,119,195,123,203,119z"/>
	<path d="M18,111c2-9,11-13,19-11C35,109,26,114,18,111z"/>
	<path d="M94,50c0,9,7,16,16,15C110,56,102,49,94,50z"/>
	<path d="M61,76c0,8-7,15-16,15C45,82,52,75,61,76z"/>
	<path d="M63,77c8,2,17-3,18-12C73,63,64,69,63,77z"/>
	<path d="M77,30c-5,6-4,17,2,22C85,45,84,35,77,30z"/>
	<path d="M144,69c-4,8-14,10-21,5C127,67,137,64,144,69z"/>
	<path d="M153,81c-7,6-8,16-2,22C158,97,159,87,153,81z"/>
	<path d="M174,131c0-9-9-15-17-13C158,127,166,133,174,131z"/>
	<path d="M189,129c0-9-8-15-16-14C173,124,181,130,189,129z"/>
	<path d="M137,129c-7,6-7,16-1,22C142,146,143,135,137,129z"/>
	<path d="M161,160c-7-6-17-5-22,2C146,168,156,167,161,160z"/>
	<path d="M154,138c-8,0-15,8-13,16C149,154,156,146,154,138z"/>
	<path d="M153,182c0-9-8-15-16-14C137,177,145,183,153,182z"/>
	<path d="M37,125c7-4,10-14,5-21C35,108,32,118,37,125z"/>
</g>
</svg>
